<svg fill="none" height="32" viewBox="0 0 32 32" width="32" xmlns="http://www.w3.org/2000/svg"><path d="m7 28.0001c-.26522 0-.51957-.1054-.70711-.2929-.18753-.1876-.29289-.4419-.29289-.7071v-22.00003c.00003-.17377.04534-.34453.13147-.49546.08612-.15092.21009-.2768.35968-.36522.14959-.08843.31965-.13634.4934-.13903.17375-.00268.3452.03996.49745.12371l20 11.00003c.1568.0863.2875.2131.3786.3672s.1391.3298.1391.5088-.048.3547-.1391.5087c-.0911.1541-.2218.2809-.3786.3673l-20 11c-.14765.0813-.31345.1239-.482.124z" fill="#000"/></svg>