<svg fill="none" height="17" viewBox="0 0 17 17" width="17" xmlns="http://www.w3.org/2000/svg"><path d="m14.8525 13.1475c-.3903-.3739-.7701-.7585-1.1391-1.1534-.31-.315-.4967-.5441-.4967-.5441l-2.3333-1.1142c.9341-1.05948 1.4497-2.42335 1.45-3.83584 0-3.21583-2.61671-5.833334-5.83338-5.833334s-5.833333 2.617504-5.833333 5.833334 2.616663 5.83334 5.833333 5.83334c1.46917 0 2.80833-.55 3.83588-1.4492l1.1141 2.3334s.2292.1866.5442.4966c.3225.3025.7467.7117 1.1533 1.1392l1.1317 1.16.5033.5383 1.7675-1.7675-.5383-.5033c-.3158-.31-.7375-.7217-1.1592-1.1333zm-8.35248-2.4809c-2.2975 0-4.16667-1.86914-4.16667-4.16664s1.86917-4.16667 4.16667-4.16667 4.16668 1.86917 4.16668 4.16667-1.86918 4.16664-4.16668 4.16664z" fill="#fff"/></svg>