<svg fill="none" height="18" viewBox="0 0 20 18" width="20" xmlns="http://www.w3.org/2000/svg"><path d="m19.548 4.83695-2.673 2.673c-.1875.18765-.4419.29311-.7071.29321-.2653.00009-.5198-.1052-.7074-.29271-.1876-.1875-.2931-.44187-.2932-.70714s.1052-.51971.2927-.70736l1.096-1.096h-1.456c-1.1825.00001-2.3299.40149-3.2544 1.13871s-1.5714 1.76649-1.8346 2.91929c.2928 1.12835.9518 2.12765 1.8737 2.84105s2.0546 1.1007 3.2203 1.101h1.502l-1.147-1.147c-.1875-.1877-.2928-.4421-.2927-.7074s.1056-.5196.2932-.7071c.1876-.1876.4421-.2928.7074-.2927.2652 0 .5196.1055.7071.2932l2.828 2.828c.1522.1519.2512.3491.282.562.0327.1923.0088.3899-.0687.5689-.0776.1789-.2056.3315-.3683.4391l-2.673 2.673c-.1875.1876-.4419.2931-.7071.2932-.2653 0-.5198-.1052-.7074-.2927-.1876-.1876-.2931-.4419-.2932-.7072s.1052-.5197.2927-.7073l1.096-1.096h-1.451c-1.2173.0001-2.4152-.3056-3.4835-.8892-1.0684-.5837-1.97289-1.4264-2.6305-2.4508-.65243 1.0238-1.5525 1.8666-2.61697 2.4504-1.06448.5838-2.25898.8897-3.47303.8896h-1.901c-.265216 0-.51957-.1054-.707107-.2929-.187536-.1876-.292893-.4419-.292893-.7071 0-.2653.105357-.5196.292893-.7072.187537-.1875.441891-.2928.707107-.2928h1.901c1.16103 0 2.28895-.3869 3.20538-1.0998.91642-.7129 1.56903-1.7109 1.85462-2.83625-.27052-1.15623-.9241-2.18699-1.85453-2.9248-.93042-.73781-2.08301-1.13928-3.27047-1.1392h-1.836c-.265216 0-.51957-.10535-.707107-.29289-.187536-.18754-.292893-.44189-.292893-.70711 0-.26521.105357-.51957.292893-.7071.187537-.18754.441891-.2929.707107-.2929h1.836c1.22662-.00002 2.43328.31057 3.50745.90283 1.07417.59225 1.98087 1.44687 2.63555 2.48417.64964-1.037 1.5522-1.89188 2.6229-2.48434s2.2744-.90307 3.4981-.90266h1.508l-1.148-1.147c-.0928-.09291-.1665-.20319-.2167-.32456s-.076-.25144-.076-.38279.026-.261401.0763-.382733.124-.231568.2169-.324413c.0929-.092844.2032-.16648.3246-.216702.1213-.050222.2514-.076046.3828-.076.1313.000046.2614.025963.3827.076271s.2316.124021.3244.216931l2.828 2.827996c.1522.15197.2512.34914.282.562.0327.1923.0088.38996-.0687.56893-.0776.17896-.2056.33151-.3683.43907z" fill="#fff"/></svg>